HIERARCHY
ROOT Hips
{
	OFFSET -10.056300 7.733760 -472.550000
	CHANNELS 6 Xposition Yposition Zposition Zrotation Yrotation Xrotation 
	JOINT Spine
	{
		OFFSET 0.000000 0.000000 0.000000
		CHANNELS 3 Zrotation Yrotation Xrotation
		JOINT Spine1
		{
			OFFSET 19.000000 0.000000 0.000000
			CHANNELS 3 Zrotation Yrotation Xrotation
			JOINT Neck
			{
				OFFSET 22.500000 0.600000 0.000000
				CHANNELS 3 Zrotation Yrotation Xrotation
				JOINT Head
				{
					OFFSET 14.000000 0.030878 0.000000
					CHANNELS 3 Zrotation Yrotation Xrotation
					End Site
					{
						OFFSET 17.000000 0.000000 0.000000
					}
				}
			}
			JOINT LeftShoulder
			{
				OFFSET 19.800000 3.700000 4.300000
				CHANNELS 3 Zrotation Yrotation Xrotation
				JOINT LeftArm
				{
					OFFSET 8.000000 0.000000 0.000000
					CHANNELS 3 Zrotation Yrotation Xrotation
					JOINT LeftForeArm
					{
						OFFSET 15.200000 0.000000 0.000000
						CHANNELS 3 Zrotation Yrotation Xrotation
						JOINT LeftHand
						{
							OFFSET 17.800000 0.000000 0.000000
							CHANNELS 3 Zrotation Yrotation Xrotation
							End Site
							{
								OFFSET 7.200000 0.000000 0.000000
							}
						}
					}
				}
			}
			JOINT RightShoulder
			{
				OFFSET 19.800000 3.700000 -4.300000
				CHANNELS 3 Zrotation Yrotation Xrotation
				JOINT RightArm
				{
					OFFSET 8.000000 0.000000 0.151654
					CHANNELS 3 Zrotation Yrotation Xrotation
					JOINT RightForeArm
					{
						OFFSET 15.200000 0.000000 0.000000
						CHANNELS 3 Zrotation Yrotation Xrotation
						JOINT RightHand
						{
							OFFSET 17.800000 0.000000 0.000000
							CHANNELS 3 Zrotation Yrotation Xrotation
							End Site
							{
								OFFSET 7.200000 0.000000 0.000000
							}
						}
					}
				}
			}
		}
	}
	JOINT LeftUpLeg
	{
		OFFSET 5.984250 -7.666000 4.788790
		CHANNELS 3 Zrotation Yrotation Xrotation
		JOINT LeftLeg
		{
			OFFSET 16.000000 0.000000 0.000000
			CHANNELS 3 Zrotation Yrotation Xrotation
			JOINT LeftFoot
			{
				OFFSET 18.000000 0.000000 0.000000
				CHANNELS 3 Zrotation Yrotation Xrotation
				End Site
				{
					OFFSET 0.000000 -10.800000 0.000000
				}
			}
		}
	}
	JOINT RightUpLeg
	{
		OFFSET 5.984250 -7.665980 -4.788790
		CHANNELS 3 Zrotation Yrotation Xrotation
		JOINT RightLeg
		{
			OFFSET 16.000000 0.000000 0.000000
			CHANNELS 3 Zrotation Yrotation Xrotation
			JOINT RightFoot
			{
				OFFSET 18.000000 0.000000 0.000000
				CHANNELS 3 Zrotation Yrotation Xrotation
				End Site
				{
					OFFSET 0.000000 -10.800000 0.000000
				}
			}
		}
	}
	JOINT Tail
	{
		OFFSET 6.836960 -0.722574 0.000000
		CHANNELS 3 Zrotation Yrotation Xrotation
		JOINT Tail1
		{
			OFFSET 12.000000 0.000000 0.000000
			CHANNELS 3 Zrotation Yrotation Xrotation
			End Site
			{
				OFFSET 12.000000 0.000000 0.000000
			}
		}
	}
}
MOTION
Frames: 16
Frame Time: 0.033333
-17642.564453 -1514.708008 -2309.558594 29.603121 7.792613 27.724987 -134.923187 -12.443259 0.106615 -126.474236 18.558123 -36.450592 -35.694969 -12.502975 11.095610 -21.948441 18.590885 179.693588 70.636566 19.406828 -127.833511 -44.049767 -59.639397 173.337234 -141.258759 9.101269 86.155930 -165.913132 -9.908696 69.448364 -90.853386 -4.192905 176.079163 -29.465029 4.654965 90.969948 121.818741 -6.603921 -51.428123 -105.526154 5.265522 -60.111694 -140.546860 -25.987146 36.570698 88.679832 12.332312 100.430901 71.980827 -27.758024 3.775840 -179.678253 8.148596 19.728275 33.745312 5.458569 -29.968019 -156.052795 -40.389015 70.749931 90.731194 12.273647 11.901749 -48.105167 25.049997 66.212967 
-34617.289062 1610.567139 -5927.748047 31.929049 10.272674 30.159145 -135.630661 -12.300176 0.584975 -125.630234 19.645205 -36.020138 -35.687790 -13.033937 11.570175 -21.184608 18.757364 179.248123 77.949829 19.485390 -127.802559 -45.708099 -60.287380 171.932373 -140.593979 12.128072 80.810188 -165.277557 -10.303295 69.903648 -90.453606 -9.116747 178.769333 -28.375675 3.125762 82.352798 120.340591 -6.955608 -55.660679 -107.592911 15.227057 -71.077904 -140.272736 -28.734533 34.604862 88.676453 12.044734 96.512535 73.825409 -28.812859 3.209570 -178.381332 7.307635 19.286034 35.386932 1.955203 -30.627857 -157.044022 -42.732426 74.391243 102.920883 10.545033 22.020878 -42.128754 27.239574 74.527588 
-62204.695312 -4643.647461 -10911.607422 34.230995 13.319333 32.203747 -136.286697 -12.063630 1.060413 -124.752563 20.299511 -35.127365 -35.726387 -13.540259 11.934715 -20.857634 19.166748 178.706665 86.831200 20.903608 -127.922020 -47.916946 -60.292332 170.418365 -137.844254 14.905897 77.780540 -164.911850 -10.709798 69.941132 -91.715904 -14.550334 -176.893417 -29.400366 1.436428 72.084702 117.512009 -6.783129 -56.362144 -112.436684 21.018166 -76.907166 -139.290970 -30.626123 32.255489 85.400894 14.435723 91.593948 71.431114 -30.708782 3.007717 -175.891068 5.613134 19.172424 36.552231 -1.311254 -31.645170 -156.111176 -44.677521 74.188881 112.879234 4.257166 30.096653 -37.684772 27.955805 79.886337 
-85396.648438 -6610.078125 -16985.220703 36.359501 15.737800 34.085693 -136.765472 -11.803612 1.446483 -123.940933 20.520365 -33.996017 -35.834461 -13.967069 12.217916 -20.889061 19.817083 178.077240 97.189545 24.425245 -128.955719 -50.812210 -60.057713 168.786697 -132.719589 17.785469 78.257645 -165.317108 -10.657887 70.487900 -95.102364 -19.862217 -171.050583 -33.080635 -1.801086 61.347412 114.453026 -5.959530 -52.058224 -116.483093 22.550568 -76.065247 -137.867401 -31.525475 30.009687 79.753944 17.483337 85.887886 67.639557 -32.959351 2.863885 -172.632309 3.320696 18.861219 36.962475 -4.673065 -33.033493 -152.861984 -46.240417 70.037354 120.202652 -2.017385 35.653652 -36.299561 28.226862 82.114296 
-97398.703125 -9583.230469 -23252.695312 37.803154 17.025990 35.466206 -137.027893 -11.599047 1.653325 -123.207687 20.333542 -32.760323 -36.038704 -14.204288 12.435111 -21.218998 20.565094 177.523544 107.645515 29.979013 -131.097198 -53.439857 -59.788071 166.346802 -126.150993 21.440317 82.182495 -166.927750 -9.902821 71.655701 -100.275444 -24.306557 -164.420578 -38.310772 -7.119903 52.046558 112.648666 -6.125750 -42.897400 -119.306625 22.161743 -72.740555 -136.805252 -31.286684 28.287821 73.365303 19.950527 80.092819 63.907059 -35.806431 2.297438 -168.793152 0.517887 17.782866 36.526222 -8.367842 -34.690559 -148.012589 -47.205982 63.321335 124.859146 -7.854942 42.028908 -37.609467 28.858541 80.423790 
-105929.359375 -9741.659180 -32705.343750 37.552418 17.266508 36.042652 -137.210190 -11.481229 1.625373 -122.536690 19.719824 -31.526871 -36.372978 -14.238001 12.588248 -21.750469 21.438196 177.287888 117.570160 38.139599 -134.475510 -55.478504 -59.290047 163.181046 -117.263138 25.827700 89.849464 -169.527710 -8.628458 72.479774 -106.935860 -27.666224 -157.516174 -44.471504 -13.727353 46.251194 113.136986 -9.164662 -29.624485 -120.613365 21.743914 -70.602768 -136.681717 -29.842508 27.526606 67.394974 21.005325 74.814972 60.609314 -38.852222 1.450558 -164.706223 -2.642983 15.588452 35.377357 -12.131815 -36.297787 -142.658859 -47.825104 56.026138 127.488495 -12.912378 50.322872 -40.543957 30.729616 74.911827 
-116101.093750 -9621.806641 -42674.886719 36.249992 16.485497 36.329422 -137.423355 -11.481730 1.353853 -121.970207 18.619785 -30.424034 -36.871704 -13.976847 12.646981 -22.235107 22.567059 177.458817 125.503479 50.023304 -138.683334 -56.394798 -58.405743 159.891861 -105.878448 28.744150 100.887512 -172.796524 -7.351371 71.939255 -114.107437 -29.717024 -151.514740 -50.884785 -19.651419 45.283844 114.980217 -17.066336 -15.184580 -118.919502 23.725695 -72.695534 -137.595581 -27.319151 27.339497 63.105167 20.615210 70.838455 56.295361 -42.325649 0.888379 -160.284760 -6.198473 12.205260 33.529919 -15.986962 -37.554676 -137.309174 -48.013401 49.122955 128.045761 -19.387808 60.402283 -46.647308 31.445055 60.668034 
-135749.250000 -9521.573242 -53881.468750 34.666946 15.719110 36.363773 -137.627762 -11.664659 0.822148 -121.527420 16.933931 -29.549288 -37.442684 -13.288252 12.465388 -22.815666 23.957003 178.132202 129.988983 65.634377 -143.088257 -57.219841 -56.864155 158.362717 -94.155418 26.988331 112.748672 -176.594101 -6.398455 70.179756 -121.279114 -30.574896 -147.217697 -56.933514 -23.318995 49.152489 116.463219 -28.861059 -2.674463 -114.035027 29.725737 -80.029457 -139.066940 -24.761564 26.978407 61.284157 19.295082 68.616859 51.457073 -46.253246 0.547502 -155.274719 -9.719877 7.558048 31.577690 -20.061771 -38.300922 -133.100937 -47.318802 43.553467 126.238693 -29.276962 72.090973 -55.311520 25.127695 32.125320 
-157248.312500 4973.472656 -67107.078125 33.706020 15.154140 36.261326 -137.836563 -12.051893 0.061024 -121.164459 14.841712 -29.053093 -38.005699 -12.131056 11.952842 -23.772728 25.492876 178.997269 122.596001 82.901947 -157.668228 -59.844830 -54.981159 159.954712 -85.562714 19.619324 122.139679 179.775879 -6.060154 66.929436 -128.650131 -30.547882 -143.865189 -62.553062 -24.151464 56.864536 116.143959 -40.098698 7.821417 -106.910301 39.587135 -89.488197 -140.823639 -23.040270 26.083593 61.957878 17.396236 67.650581 49.309002 -49.809589 -1.005966 -150.640930 -12.604043 2.010241 29.903387 -23.927807 -38.535244 -129.993393 -46.510582 39.865730 122.919563 -40.235352 82.860146 -59.428837 10.174502 -4.905990 
-176742.265625 7159.802734 -78399.671875 32.912712 14.592968 35.472233 -138.097992 -12.608404 -0.813892 -120.879288 12.823342 -29.127108 -38.434326 -10.515379 11.157110 -25.301220 26.965300 179.657516 -22.834839 78.803368 50.082455 -63.448006 -53.071907 163.608902 -80.844597 9.569399 128.355453 176.591232 -6.068165 63.109837 -136.006042 -29.764524 -140.605911 -67.219826 -22.741550 66.495499 112.559662 -46.626690 18.543446 -98.088249 49.359047 -94.552635 -143.238983 -22.015236 24.531771 64.826706 15.161776 67.275047 50.664509 -52.765335 -4.481298 -146.949646 -15.117112 -3.985510 28.794468 -27.394720 -38.653423 -127.660492 -45.781681 37.731293 119.083344 -50.073448 91.069168 -55.903709 -5.928817 -41.408379 
-189012.812500 8382.675781 -88782.601562 31.410337 13.771231 33.901367 -138.420364 -13.325599 -1.740507 -120.650681 11.225588 -29.980120 -38.577950 -8.656377 10.213323 -27.269068 28.167442 -179.995255 -24.875769 62.118813 40.556728 -66.703667 -50.877949 167.802460 -77.479797 -0.337751 132.540543 173.480713 -5.775373 59.919041 -142.602783 -28.373371 -137.856918 -70.203674 -20.106552 76.350418 107.943100 -45.741474 29.084457 -86.484123 55.426098 -91.204765 -146.758881 -21.508875 22.963465 68.854507 12.123667 67.005241 55.765133 -55.110931 -10.305396 -144.109344 -17.372026 -9.993826 28.646139 -30.166365 -38.808647 -126.041245 -45.276890 36.876591 116.254059 -58.103638 95.596016 -48.695530 -17.018358 -71.683571 
-198099.343750 13802.541016 -95651.750000 29.333321 12.981456 31.998066 -138.759079 -14.210687 -2.703036 -120.528694 10.202104 -31.820835 -38.479816 -6.778742 9.139813 -29.533457 29.048370 179.872070 -21.250656 46.899914 36.070446 -69.619957 -48.414986 172.117767 -74.222084 -9.338083 134.906464 170.472397 -5.525013 56.758095 -147.856491 -26.676403 -136.175568 -71.357361 -16.825769 85.606689 105.112679 -38.185902 36.981445 -70.696907 55.860344 -79.079964 -151.736450 -21.607954 21.703257 73.020630 8.914908 66.603264 63.120022 -56.622433 -17.972740 -141.894745 -19.206575 -15.886261 29.015408 -32.092628 -38.543884 -124.785393 -45.144127 36.940319 113.847610 -65.615387 97.508842 -39.706673 -23.670710 -96.234589 
-215278.671875 11809.056641 -100142.851562 26.943918 12.333019 30.672302 -139.091980 -15.232486 -3.667203 -120.610725 9.910457 -35.072796 -38.292103 -5.007552 8.039442 -31.874147 29.667028 179.374390 -16.754824 34.127033 32.518677 -72.412788 -45.599739 176.209412 -71.678238 -16.791090 135.454285 167.765030 -5.931342 53.527203 -151.355789 -25.139647 -135.327499 -70.958031 -13.300362 93.330414 104.144318 -26.516068 42.184093 -56.466816 49.170784 -64.984993 -158.110336 -22.537483 20.933203 75.308121 6.583072 65.811920 70.333199 -57.192127 -25.946409 -139.937286 -20.424135 -21.757578 29.060715 -33.517471 -37.624104 -123.936852 -45.050938 37.419434 104.681061 -74.666428 105.038422 -28.883776 -25.895775 -115.895218 
-234736.640625 17824.183594 -104710.453125 24.514660 11.178986 30.576675 -139.491776 -16.338724 -4.583332 -120.911346 10.360088 -39.903149 -38.106716 -3.466367 7.088912 -33.925117 30.009377 178.887680 -12.215465 24.262299 29.297958 -75.509995 -42.552238 -179.955780 -69.933395 -22.913691 134.846710 164.781143 -6.288670 52.023586 -153.026596 -24.078756 -135.294937 -69.554337 -9.471030 99.078903 104.351357 -13.688168 44.977215 -47.297253 38.197247 -54.316051 -165.261826 -24.292021 21.031406 74.674583 4.749939 64.848740 77.275803 -56.542183 -33.737366 -138.201813 -20.869579 -27.564280 28.032261 -34.514050 -35.863937 -123.394096 -44.591965 37.653603 51.188183 -82.178749 156.362396 -19.190594 -24.175608 -130.009659 
-252837.234375 21741.060547 -107965.437500 22.050659 10.128518 31.335100 -139.967712 -17.482046 -5.402830 -121.410210 11.425290 -46.175449 -38.026566 -2.083277 6.287483 -35.655773 30.084534 178.569763 -8.688449 16.426449 26.880449 -79.189438 -39.599934 -176.424835 -68.741867 -28.078058 134.058075 160.348404 -3.742037 57.083424 -153.331451 -23.511751 -135.629272 -67.715385 -5.655837 102.771355 104.439880 -2.632429 46.497982 -39.387657 26.102798 -46.635902 -171.957428 -26.509375 21.505583 68.641174 4.326994 64.160271 80.824821 -55.656113 -39.597523 -135.549515 -20.343473 -33.576332 25.522606 -35.440170 -33.475365 -123.624657 -43.133842 37.270161 -13.933912 -73.105309 -140.462540 -12.053529 -20.085587 -139.569794 
-259735.281250 16356.415039 -110598.234375 19.781134 8.958649 33.133881 -140.548904 -18.594673 -6.075478 -122.064529 12.961902 -53.670681 -38.111240 -0.728173 5.629161 -36.954437 29.943520 178.439453 -6.457651 9.742630 25.436220 -83.345612 -36.819637 -173.778809 -68.284233 -32.350376 134.182968 155.157822 3.721357 69.426834 -152.872650 -23.015491 -136.310181 -66.116592 -2.002886 104.625000 104.461792 5.462581 46.614449 -30.302624 12.880562 -41.109142 -177.286514 -28.899324 22.264605 56.216957 5.189329 64.287621 81.460571 -54.676189 -43.632343 -131.922333 -18.700911 -39.737152 21.521753 -36.518421 -30.996391 -124.466049 -40.512501 35.781590 -27.681963 -57.365364 -128.253387 -7.392761 -15.439722 -145.535019 
